<svg width="461" height="23" viewBox="0 0 461 23" fill="none" xmlns="http://www.w3.org/2000/svg">
<path d="M7.83 20.95C10.65 20.95 12.91 20.19 14.61 18.67C16.33 17.13 17.19 14.82 17.19 11.74C17.19 8.66 16.22 6.21 14.28 4.39C12.36 2.57 9.98 1.66 7.14 1.66C5.32 1.66 3.74 1.71 2.4 1.81V20.71C3.7 20.87 5.51 20.95 7.83 20.95ZM7.14 0.339998C10.44 0.339998 13.2 1.37 15.42 3.43C17.64 5.47 18.75 8.25 18.75 11.77C18.75 13.55 18.46 15.13 17.88 16.51C17.32 17.87 16.54 18.96 15.54 19.78C13.48 21.44 10.91 22.27 7.83 22.27C5.81 22.27 3.52 22.16 0.96 21.94V0.549999C3 0.409998 5.06 0.339998 7.14 0.339998ZM42.3199 14.56L39.2299 22H37.6999L46.7299 0.399999H47.5699L56.6299 22H55.0099L51.9199 14.56H42.3199ZM47.0599 2.8C47.0399 2.82 46.9999 2.94 46.9399 3.16C46.6599 4.02 46.3899 4.75 46.1299 5.35L42.8299 13.33H51.4099L48.1099 5.38C47.4099 3.86 47.0599 3 47.0599 2.8ZM83.9925 20.95C86.8125 20.95 89.0725 20.19 90.7725 18.67C92.4925 17.13 93.3525 14.82 93.3525 11.74C93.3525 8.66 92.3825 6.21 90.4425 4.39C88.5225 2.57 86.1425 1.66 83.3025 1.66C81.4825 1.66 79.9025 1.71 78.5625 1.81V20.71C79.8625 20.87 81.6725 20.95 83.9925 20.95ZM83.3025 0.339998C86.6025 0.339998 89.3625 1.37 91.5825 3.43C93.8025 5.47 94.9125 8.25 94.9125 11.77C94.9125 13.55 94.6225 15.13 94.0425 16.51C93.4825 17.87 92.7025 18.96 91.7025 19.78C89.6425 21.44 87.0725 22.27 83.9925 22.27C81.9725 22.27 79.6825 22.16 77.1225 21.94V0.549999C79.1625 0.409998 81.2225 0.339998 83.3025 0.339998ZM124.505 20.95C127.325 20.95 129.585 20.19 131.285 18.67C133.005 17.13 133.865 14.82 133.865 11.74C133.865 8.66 132.895 6.21 130.955 4.39C129.035 2.57 126.655 1.66 123.815 1.66C121.995 1.66 120.415 1.71 119.075 1.81V20.71C120.375 20.87 122.185 20.95 124.505 20.95ZM123.815 0.339998C127.115 0.339998 129.875 1.37 132.095 3.43C134.315 5.47 135.425 8.25 135.425 11.77C135.425 13.55 135.135 15.13 134.555 16.51C133.995 17.87 133.215 18.96 132.215 19.78C130.155 21.44 127.585 22.27 124.505 22.27C122.485 22.27 120.195 22.16 117.635 21.94V0.549999C119.675 0.409998 121.735 0.339998 123.815 0.339998ZM163.71 22H162.27V14.32L154.2 0.549999H155.94L162.18 11.41C162.54 12.05 162.84 12.61 163.08 13.09C163.16 12.83 163.44 12.29 163.92 11.47L170.16 0.549999H171.81L163.71 14.38V22ZM190.095 0.549999H191.685V2.02L190.425 4.33H189.735L190.095 2.5V0.549999ZM216.348 3.37C215.268 3.37 214.388 3.63 213.708 4.15C213.028 4.67 212.688 5.4 212.688 6.34C212.688 7.42 213.138 8.39 214.038 9.25C214.678 9.87 215.498 10.53 216.498 11.23C217.518 11.91 218.218 12.4 218.598 12.7C218.978 13 219.438 13.41 219.978 13.93C220.958 14.91 221.448 16.04 221.448 17.32C221.448 18.98 220.888 20.24 219.768 21.1C218.668 21.94 217.118 22.36 215.118 22.36C213.138 22.36 211.478 21.84 210.138 20.8L210.858 19.75C212.218 20.67 213.658 21.13 215.178 21.13C216.698 21.13 217.878 20.81 218.718 20.17C219.578 19.53 220.008 18.63 220.008 17.47C220.008 16.47 219.578 15.55 218.718 14.71C218.118 14.11 217.308 13.46 216.288 12.76C215.288 12.06 214.588 11.56 214.188 11.26C213.788 10.94 213.318 10.52 212.778 10C211.758 8.98 211.248 7.8 211.248 6.46C211.248 5.12 211.718 4.07 212.658 3.31C213.618 2.55 214.938 2.17 216.618 2.17C218.298 2.17 219.808 2.5 221.148 3.16L220.638 4.27C219.398 3.67 217.968 3.37 216.348 3.37ZM275.799 16.81L282.009 0.969999H282.879L288.309 16.93C288.729 18.19 289.009 19.1 289.149 19.66C289.309 19 289.589 18.1 289.989 16.96L295.509 0.549999H297.009L289.539 22.18H288.699L283.149 6.28C283.069 6.02 282.979 5.76 282.879 5.5C282.799 5.24 282.729 5.01 282.669 4.81C282.609 4.61 282.549 4.44 282.489 4.3L282.369 3.94C282.349 3.84 282.339 3.78 282.339 3.76C282.099 4.48 281.789 5.31 281.409 6.25L275.139 22.18H274.299L266.769 0.549999H268.359L273.849 16.69C274.109 17.41 274.319 18.06 274.479 18.64C274.659 19.22 274.759 19.54 274.779 19.6C274.879 19.14 275.219 18.21 275.799 16.81ZM317.439 14.56L314.349 22H312.819L321.849 0.399999H322.689L331.749 22H330.129L327.039 14.56H317.439ZM322.179 2.8C322.159 2.82 322.119 2.94 322.059 3.16C321.779 4.02 321.509 4.75 321.249 5.35L317.949 13.33H326.529L323.229 5.38C322.529 3.86 322.179 3 322.179 2.8ZM352.241 22V0.549999H353.681V20.68H363.551V22H352.241ZM384.229 22V0.549999H385.669V20.68H395.539V22H384.229ZM416.216 22V0.549999H426.176V1.81H417.656V9.7H425.366V10.93H417.656V20.74H426.506V22H416.216ZM452.281 1.81H445.021V0.549999H460.981V1.81H453.721V22H452.281V1.81Z" fill="#BBBBBB"/>
</svg>
